<?xml version="1.0" encoding="UTF-8" standalone="no"?>
<!-- Created with Inkscape (http://www.inkscape.org/) -->

<svg
   version="1.1"
   id="svg1"
   width="1496"
   height="1496"
   viewBox="0 0 1496 1496"
   sodipodi:docname="v567-n-45-doodles.eps"
   xmlns:inkscape="http://www.inkscape.org/namespaces/inkscape"
   xmlns:sodipodi="http://sodipodi.sourceforge.net/DTD/sodipodi-0.dtd"
   xmlns="http://www.w3.org/2000/svg"
   xmlns:svg="http://www.w3.org/2000/svg">
  <defs
     id="defs1" />
  <sodipodi:namedview
     id="namedview1"
     pagecolor="#ffffff"
     bordercolor="#000000"
     borderopacity="0.25"
     inkscape:showpageshadow="2"
     inkscape:pageopacity="0.0"
     inkscape:pagecheckerboard="0"
     inkscape:deskcolor="#d1d1d1">
    <inkscape:page
       x="0"
       y="0"
       inkscape:label="1"
       id="page1"
       width="1496"
       height="1496"
       margin="0"
       bleed="0" />
  </sodipodi:namedview>
  <g
     id="g1"
     inkscape:groupmode="layer"
     inkscape:label="1">
    <g
       id="group-R5">
      <path
         id="path2"
         d="M 11220,0 H 0 V 11220 H 11220 V 0"
         style="fill:#fffdf8;fill-opacity:1;fill-rule:nonzero;stroke:none"
         transform="matrix(0.13333333,0,0,-0.13333333,0,1496)" />
      <path
         id="path3"
         d="m 5349.62,3320.94 c 110.92,5.57 221.79,11.69 332.59,18.88 14.9,-3.03 29.78,-6.1 44.72,-8.94 4.22,-0.8 8.47,-1.51 12.7,-2.3 -130,-2.52 -260,-5.05 -390.01,-7.64 z m 2628.68,97.18 c -22.2,55.29 -93.67,76.61 -148.72,75.97 -377.62,-4.35 -755.79,-14.4 -1133.37,-3.63 -130.71,3.73 -261.21,10.85 -391.3,23.11 -5.73,21.26 -19.11,36.78 -41.61,37.2 -87.87,1.64 -175.69,2.23 -263.48,1.97 -43.03,7.07 -85.96,14.73 -128.75,23.21 -47.47,9.4 -94.76,19.62 -141.68,31.51 -24.37,6.17 -48.51,13.29 -72.89,19.44 -69.64,17.57 -140.46,8.06 -211.4,17.24 -54.23,7.02 -188.07,-17.18 -138.65,-106.79 -32.13,-1.15 -64.26,-2.29 -96.39,-3.49 -176.53,-6.61 -353.07,-13.42 -529.58,-20.36 -150.03,-5.9 -303.37,-4.17 -452.14,-26.57 -152.15,-22.9 -300,-81.61 -382.39,-218.87 -50.23,-83.67 101.22,-174.2 165.61,-176.29 514.34,-16.71 1030.49,6.59 1545.01,9.2 507.01,2.57 1015.64,0.44 1522.38,17.56 287.44,9.71 566.16,46.24 829.34,168.72 46.56,21.67 90.87,78.86 70.01,130.87"
         style="fill:#ebe3cf;fill-opacity:1;fill-rule:nonzero;stroke:none"
         transform="matrix(0.13333333,0,0,-0.13333333,0,1496)" />
      <path
         id="path4"
         d="m 7161.8,3755.26 c -0.23,35.53 2.04,70.57 -8.25,106.09 -7.21,24.91 -5.41,52.91 -4.94,79.49 1.89,107.1 5.31,214.18 7.17,321.28 0.98,56.16 8.91,112.71 -10.81,167.98 -4.74,13.28 -2.02,29.48 -1.6,44.3 1.65,59.26 6.83,64.31 74,74.62 -5.97,73.36 -22.71,145.97 -14.94,220.27 0.3,2.86 -0.64,5.87 -1.05,8.81 -14.27,101.83 -32.63,203.34 -40.99,305.65 -3.85,47.2 -17.03,93.17 -16.34,140.17 0.74,50.56 -1.95,100.06 -14.26,149.27 -7.13,28.49 -13.3,57.67 -15.45,86.86 -6.73,91.38 -25.37,180.65 -45.64,269.55 -17.7,77.61 -37.65,154.77 -58.88,231.49 -8.2,29.64 -12.97,58.47 -0.81,86.74 15.97,37.06 11.46,75.62 12.86,113.86 -15.22,-2.09 -27.88,-6.6 -34.34,-23.15 -34.13,-87.5 -96.47,-155.7 -159.07,-222.37 -87.76,-93.43 -188.59,-170.54 -303.87,-228.69 -44.77,-22.58 -85.91,-52.52 -127.94,-80.26 -82.13,-54.24 -167.85,-69.24 -261.61,-31.52 -46.84,18.85 -93.03,38.33 -138.02,61.42 -147.96,75.93 -292.73,156.66 -425.16,258.34 -28.31,21.74 -57.1,42.18 -81.08,68.77 -23.87,26.48 -51.17,47.29 -86.01,55.22 28.21,-58.22 -47.37,-192.4 -71.65,-231.79 -111.06,-180.09 -183.92,-374.49 -310.62,-545.52 -17.28,-42.7 -33.63,-85.8 -46.44,-130.43 -48.91,-170.61 -87.35,-343.69 -129.87,-515.82 -8.76,-35.43 -6.54,-69.27 2.4,-105.13 23,-92.19 21.33,-92.62 -25.43,-174.66 -5.88,-10.32 -11.28,-20.98 -17.89,-30.83 -56.45,-84.07 -99.29,-175.18 -143.25,-266.12 -22.87,-47.31 -27.89,-104.28 -71.11,-141.36 4.34,-58.74 27.24,-115.55 13.12,-167.53 13.3,-21.95 25.67,-14.03 36.6,-14.38 56.29,-1.78 70.67,-13.2 87.14,-68.57 15.77,-52.94 37.98,-70.05 89.89,-54.57 65.16,19.45 130.38,41.81 191.36,71.54 88.63,43.2 166.85,101.14 221.88,186.73 20.62,32.07 59.23,50.19 76.83,85.94 51.38,104.29 94.99,210.93 96.38,329.88 0.22,17.85 -0.87,35.92 1.54,53.5 11.1,80.82 -5.07,160.45 -18.23,238.53 -9.82,58.28 -5.55,117.99 -23.63,175.52 -10.72,34.14 8.26,63.75 39.66,82.12 26.9,15.75 62.18,7.46 78.27,-18.64 12.51,-20.3 19.12,-42.58 23.85,-66.46 19.5,-98.61 41.42,-196.73 62.47,-295.02 3.09,-14.43 4.79,-29.36 9.71,-43.13 7.42,-20.74 17.54,-33.11 45.92,-28.86 34.87,5.23 36.5,0.74 49.44,-34.93 45.55,-125.57 98.81,-247.95 151.53,-370.61 17.54,-40.82 42.65,-77.11 59.23,-119.01 36.57,-92.36 58.76,-186 57.67,-285.25 -0.09,-8.78 1.23,-17.72 3,-26.36 2.67,-12.98 23.87,-22.34 36.34,-15.56 10.29,5.59 22.51,10.94 28.9,19.94 53.06,74.76 114.26,144.61 141.06,235.49 5.98,20.24 12.04,39.93 11.1,60.83 -4,90.29 18.99,176.09 42,262.04 24.46,91.4 47.25,183.26 72.38,274.48 8.1,29.43 5.54,58.99 8.16,88.47 5.18,57.99 46.31,96.1 105.47,98 2.96,0.1 6,0.25 8.92,-0.2 98.38,-14.95 160.66,40.67 216.6,109.81 14.88,18.4 31.03,36.26 48.92,51.68 81.97,70.65 146.42,155.15 200.28,248.31 4.46,7.71 8.46,15.87 14.04,22.69 12.33,15 28.51,21.92 47.41,15.11 18.29,-6.6 28.78,-21.11 29.55,-40.5 0.47,-11.61 -0.34,-24.19 -4.36,-34.91 -21.87,-58.3 -42.44,-116.89 -70.83,-172.87 -48.21,-95.05 -95.32,-191.29 -121.05,-295.45 -20.14,-81.54 -23.77,-164.25 2.4,-245.77 32.6,-101.66 61.04,-204.45 83.27,-308.85 25.89,-121.58 50.93,-243.33 42.99,-368.93 -0.75,-11.77 0.13,-23.8 1.74,-35.51 1.7,-12.37 8.3,-24.3 21.27,-25.1 84.84,-5.22 170.95,-24.04 254.56,18.39 -16.55,96.34 -3.24,190.92 -3.86,285.44"
         style="fill:#f9efe6;fill-opacity:1;fill-rule:nonzero;stroke:none"
         transform="matrix(0.13333333,0,0,-0.13333333,0,1496)" />
      <path
         id="path5"
         d="m 4590.91,3877.79 c 4.34,-58.74 27.24,-115.55 13.12,-167.52 13.3,-21.96 25.67,-14.04 36.61,-14.39 56.28,-1.78 70.66,-13.2 87.13,-68.57 15.77,-52.94 37.98,-70.05 89.88,-54.57 65.17,19.45 130.39,41.81 191.37,71.54 88.63,43.2 166.85,101.14 221.88,186.73 20.62,32.07 59.23,50.19 76.83,85.94 51.38,104.29 94.99,210.93 96.38,329.88 0.21,17.85 -0.88,35.92 1.54,53.5 11.1,80.82 -5.07,160.45 -18.23,238.53 -9.82,58.28 -5.55,117.99 -23.63,175.52 -10.72,34.14 8.25,63.75 39.66,82.12 26.9,15.75 62.18,7.46 78.27,-18.64 12.51,-20.3 19.12,-42.58 23.85,-66.46 19.5,-98.61 41.42,-196.73 62.47,-295.03 3.09,-14.42 4.79,-29.35 9.71,-43.12 7.42,-20.74 17.54,-33.11 45.92,-28.86 34.87,5.23 36.5,0.73 49.44,-34.93 45.55,-125.57 98.81,-247.95 151.53,-370.61 17.54,-40.82 42.65,-77.11 59.23,-119.01 36.57,-92.36 58.76,-186 57.67,-285.25 -0.09,-8.78 1.23,-17.72 3,-26.36 2.67,-12.98 23.87,-22.34 36.34,-15.56 10.29,5.59 22.51,10.94 28.89,19.94 53.07,74.76 114.27,144.61 141.07,235.49 5.97,20.24 12.04,39.93 11.1,60.83 -4.01,90.29 18.99,176.09 42,262.04 24.46,91.4 47.25,183.26 72.38,274.48 8.1,29.43 5.54,58.99 8.16,88.47 5.18,58 46.31,96.1 105.46,98 2.98,0.1 6.01,0.24 8.93,-0.2 98.38,-14.96 160.67,40.67 216.6,109.81 14.88,18.4 31.04,36.26 48.93,51.68 81.96,70.65 146.4,155.15 200.28,248.31 4.45,7.71 8.45,15.87 14.04,22.69 12.32,15 28.5,21.92 47.4,15.11 18.3,-6.6 28.78,-21.11 29.55,-40.5 0.47,-11.61 -0.34,-24.19 -4.36,-34.91 -21.87,-58.3 -42.44,-116.89 -70.83,-172.87 -48.21,-95.05 -95.32,-191.3 -121.06,-295.45 -20.13,-81.54 -23.75,-164.25 2.41,-245.77 32.6,-101.66 61.04,-204.45 83.27,-308.85 25.89,-121.58 50.94,-243.33 42.99,-368.93 -0.76,-11.77 0.12,-23.8 1.74,-35.51 1.7,-12.37 8.3,-24.31 21.27,-25.1 84.84,-5.22 170.95,-24.04 254.56,18.39 -16.55,96.34 -3.24,190.92 -3.85,285.44 -0.24,35.53 2.03,70.57 -8.26,106.09 -7.21,24.91 -5.41,52.91 -4.94,79.49 1.89,107.1 5.31,214.18 7.17,321.28 0.98,56.15 8.91,112.71 -10.8,167.98 -4.75,13.28 -2.03,29.48 -1.61,44.3 1.65,59.26 6.83,64.31 74,74.62 32.79,-4.67 43.37,-30.47 48.56,-56.79 12.57,-63.78 25.35,-127.8 32.17,-192.34 5.75,-54.4 22.36,-104.11 45.25,-152.69 31.71,-67.29 61.29,-135.67 95.53,-201.64 46.34,-89.31 69.39,-182.49 60.95,-283.2 -1.98,-23.69 -0.57,-47.64 -2.05,-71.39 -2.62,-42.33 2.69,-78.98 31.48,-115.92 40.87,-52.46 19.28,-138.04 -37.12,-170.83 -38.52,-22.39 -80.5,-15.47 -120.97,-3.64 -14.06,4.11 -26.92,12.54 -40.09,19.46 -19.24,10.1 -41.01,14.93 -60.67,9.34 -91.16,-25.88 -183.43,-7.99 -275.13,-9.6 -38.65,-0.68 -77.46,0.37 -116.02,3.01 -83.58,5.72 -166.04,-0.39 -247.06,-21.35 -24.01,-6.22 -46.81,-8.62 -69.57,1.73 -25.38,11.55 -52.52,12.22 -78.95,10.19 -76.56,-5.9 -152.96,-13.93 -229.38,-21.41 -14.7,-1.44 -29.48,-6.95 -43.87,-5.91 -46.4,3.38 -86.5,-9.31 -126.57,-33.44 -51.93,-31.27 -109.15,-17.25 -164.3,-5.67 -17.29,3.64 -34.57,9.78 -50.32,17.78 -27.31,13.86 -50.41,10.45 -73.98,-8.63 -34.35,-27.79 -75.05,-31.82 -117.98,-30.38 -53.22,1.8 -105.83,-0.35 -159.46,-8.29 -63.76,-9.42 -130.25,-8.16 -194.69,9 -22.68,6.03 -46.68,8.1 -70.23,9.67 -41.42,2.78 -82.61,1.97 -123.07,16.85 -21.4,7.88 -47.02,4.96 -70.77,5.68 -77.35,2.36 -154.72,5.3 -232.1,5.76 -60.98,0.35 -110.79,18.62 -141.45,74.81 -22.4,41.04 -64.11,62.45 -99.66,86.56 -53.61,36.36 -111.58,68.5 -175.22,86.82 -14.2,4.09 -28.65,12.69 -42.49,11.77 -66.4,-4.43 -128.38,21.14 -193.6,26.45 -55.87,4.54 -110.31,25.38 -150.03,70.22 -22.24,25.11 -50.25,41.27 -79.26,56.77 -159.97,85.57 -264.7,216.38 -319.03,388.97 -14.19,45.07 -32.71,87.81 -56.35,129.92 -34.64,61.69 -52.44,130.99 -57.82,203.59 -6.58,88.73 -16.47,177.05 -10.12,266.25 2.53,35.49 0.83,70.89 13.76,105.57 7.02,18.85 7.18,40.94 7.24,61.57 0.28,117.23 30.77,229.2 66.48,338.67 34.92,106.98 72.55,213.43 123.53,314.93 21.87,43.56 54.23,76.78 82.06,114.41 5.46,7.37 21.78,6.71 33.09,9.76 3.74,-14.04 13.53,-29.76 10.18,-41.83 -14.17,-51.06 -19.99,-104.2 -40.98,-153.73 -13.74,-32.39 -24.58,-65.95 -31.12,-101.48 -18.13,-98.61 -41.9,-196.22 -42.06,-297.35 -0.01,-8.83 0.04,-18.58 -3.46,-26.32 -20.34,-45.04 -17.16,-92.92 -17.72,-140.16 -0.75,-64.91 1.26,-129.19 8.23,-194.42 7.18,-67.1 10.84,-136.07 22.54,-202.03 25.81,-145.57 63.06,-288.49 145.36,-415.89 54.03,-83.61 116.26,-155.71 207.03,-200.73 109.23,-54.19 224.33,-91.72 340.98,-125.5 22.69,-6.56 35.64,4.35 40.96,22.14 12.6,42.19 32.27,82.71 33.32,127.92 41.34,38.42 41.34,38.42 89.56,15.76"
         style="fill:#ebe1d9;fill-opacity:1;fill-rule:nonzero;stroke:none"
         transform="matrix(0.13333333,0,0,-0.13333333,0,1496)" />
      <path
         id="path6"
         d="m 5587.9,7195.13 c -61.02,-42.03 -123.27,-82.31 -184.74,-123.72 -18.26,-12.31 -32.88,-7.42 -47.51,6.3 -18.63,17.46 -26.42,38.42 -25.53,63.89 1.88,53.56 2.74,107.15 4.02,160.73 h -0.15 c 0.93,38.71 -0.24,77.58 3.2,116.06 8.16,91.26 21.33,181.85 42.22,271.22 4.29,18.3 10.61,35.1 30.2,39.91 20.72,5.1 32.61,-11.35 44.23,-24.28 11.8,-13.15 22.98,-27.37 31.8,-42.64 22.26,-38.52 47.13,-76.27 63.53,-117.3 29.7,-74.3 53.51,-150.94 80.72,-226.27 19.16,-53.04 2.05,-93.57 -41.99,-123.9 z m 1521.16,-624.62 c -15.73,23.64 -18.88,48.27 -22.97,75.11 -13.8,90.74 -35.42,180.02 -62.08,267.82 -18.11,59.65 -36.75,121.79 -84.7,164.23 -31.01,27.45 -47.1,57.72 -59.08,95.71 -19.57,62.12 -40.87,124.43 -69.57,182.66 -15.81,32.11 -30.36,64.18 -40.57,97.94 -26.62,87.93 -53.83,175.6 -70.78,266.35 -10.93,58.5 -31.89,113.8 -80.18,155.53 -47.91,41.4 -105.71,43.17 -150.95,-0.19 -26.48,-25.39 -45.53,-54.61 -49.33,-92.09 29.53,-0.73 37.07,26.06 52.73,42.47 52.93,55.45 73.99,52.59 110.23,-15.77 5.54,-10.47 11.72,-20.91 15.18,-32.12 44.54,-143.75 111.33,-280.1 141.31,-428.8 5.39,-26.69 8.71,-52.34 5.14,-78.93 -2.51,-18.63 -19.16,-30.42 -38.55,-27.68 -8.7,1.24 -17.54,2.96 -25.76,5.97 -63.72,23.35 -127.53,45.18 -194.4,59.46 -39.12,8.37 -75.03,31.82 -112.38,48.48 -10.18,-12.77 -23.08,-18.19 -39.14,-13.56 -91.54,26.35 -184.68,38.97 -280.17,39.38 -72.62,0.3 -141.42,-10.56 -206.52,-43.64 -23.96,-12.17 -48.14,-23.94 -72.53,-35.66 1.22,-63.36 -110.18,-87.27 -129.55,-12.31 -27.16,105.15 -54.75,211.13 -84.92,315.55 -6.99,10.7 -14.26,21.2 -22.55,30.97 -20.15,23.79 -43.89,44.37 -64.05,68.19 -20.21,23.88 -39.55,49.94 -49.09,77.05 -40.07,1.13 -79.58,-18.69 -90.16,-56.96 -12.73,-46.08 -39.1,-84.75 -52.21,-130.56 -16.32,-56.99 -29.11,-114.25 -42.09,-171.88 -13.93,-61.83 -18.75,-123.2 -3.91,-184.69 7.18,-29.73 5.9,-58.99 5.23,-88.55 -4.27,-190.3 -7.8,-380.63 -14.15,-570.87 -2,-59.95 3.63,-118.3 16.85,-176.26 9.86,-43.24 21.06,-86.19 31.67,-129.27 24.79,1.62 47.23,-2.92 64.64,-22.82 9.78,-11.19 21.92,-20.51 30.67,-32.38 75.99,-103.05 189.32,-139.32 305.65,-165.73 42.66,-9.7 85.23,-22.31 130.62,-24.73 83.97,-4.5 160.89,15.36 228.82,60.03 140.7,92.49 108.11,73.92 274.43,72.21 47.3,-0.49 95.26,2.92 140.57,-17.4 10.23,-4.58 23.7,-4.89 35.17,-3.35 126.76,17.01 250.91,41.98 360.18,114.8 35.17,23.44 65.27,51.03 90.36,84.8 12.33,16.59 25.24,33 39.74,47.66 26.59,26.88 46.11,30.19 69.31,-10.08 4.29,-7.44 11.58,-13.16 17.47,-19.69 4.11,4.19 10.71,7.74 11.96,12.65 9.35,36.86 16.61,72.97 37.99,107.16 16.67,26.66 15.83,64.61 -3.58,93.79"
         style="fill:#f9efe6;fill-opacity:1;fill-rule:nonzero;stroke:none"
         transform="matrix(0.13333333,0,0,-0.13333333,0,1496)" />
      <path
         id="path7"
         d="m 4395.33,3855.77 c -32.71,-14.39 -59.25,-0.14 -82.83,17.51 -127.47,95.42 -234.49,209.07 -308.68,351.63 -19.44,37.34 -33.41,76.65 -42.11,117.12 -13.02,60.43 -24.09,121.28 -35.16,182.12 -45.51,141.41 -54.57,291.85 3.38,434.2 29.78,73.12 78.07,166.97 145.04,227.84 9.12,24.28 18.92,48.33 30.61,71.77 7.88,15.8 15.9,33.26 16.95,50.37 2.02,33.19 20.92,54.24 42.55,75.48 12.61,12.36 22.72,27.25 34.03,40.96 41.19,49.92 86.74,95.1 137.46,135 59.12,1.81 116.55,4.28 166.88,46.02 68.06,56.45 84.63,152.29 51.23,231.93 -33.74,80.45 -120.31,147.33 -207.23,152.71 -28.4,1.77 -55.09,-3.32 -80.37,-12.94 -2.11,-0.09 -4.07,0.11 -6.21,-0.02 -109.57,-6.53 -201.5,-42.43 -266.23,-135.98 -35.39,-51.15 -72.12,-101.64 -111.92,-149.36 -21.19,-25.42 -40.67,-50.92 -54.63,-80.72 3.75,-14.04 13.53,-29.76 10.18,-41.83 -14.17,-51.06 -20,-104.2 -40.98,-153.73 -13.74,-32.39 -24.58,-65.95 -31.12,-101.48 -18.13,-98.61 -41.9,-196.22 -42.06,-297.35 -0.01,-8.83 0.05,-18.58 -3.45,-26.32 -20.35,-45.04 -17.17,-92.92 -17.73,-140.16 -0.75,-64.91 1.26,-129.19 8.23,-194.42 7.18,-67.1 10.84,-136.07 22.54,-202.03 25.8,-145.57 63.06,-288.49 145.36,-415.89 54.03,-83.61 116.26,-155.71 207.03,-200.73 109.23,-54.18 224.33,-91.72 340.98,-125.5 22.69,-6.56 35.64,4.35 40.96,22.14 12.6,42.19 32.27,82.71 33.32,127.92 -35.44,-0.93 -71.95,8.73 -106.02,-6.26"
         style="fill:#f9efe6;fill-opacity:1;fill-rule:nonzero;stroke:none"
         transform="matrix(0.13333333,0,0,-0.13333333,0,1496)" />
      <path
         id="path8"
         d="m 7062.69,6356.91 c -5.89,6.53 -13.18,12.25 -17.47,19.69 -23.2,40.27 -42.72,36.96 -69.31,10.08 -14.5,-14.66 -27.41,-31.07 -39.74,-47.66 -25.09,-33.77 -55.19,-61.36 -90.36,-84.8 -109.27,-72.82 -233.42,-97.79 -360.18,-114.8 -11.47,-1.54 -24.94,-1.23 -35.17,3.35 -45.31,20.32 -93.27,16.91 -140.57,17.4 -166.32,1.71 -133.73,20.28 -274.43,-72.21 -67.93,-44.67 -144.85,-64.53 -228.82,-60.03 -45.39,2.42 -87.96,15.03 -130.62,24.73 -116.33,26.41 -229.66,62.68 -305.65,165.73 -8.75,11.87 -20.89,21.19 -30.67,32.38 -17.41,19.9 -39.85,24.44 -64.64,22.82 -2.03,-74.59 35.76,-132 80.98,-185.86 13.81,-16.44 30.63,-30.83 35.6,-52 5.8,-4.33 10.03,-9.89 13.13,-16.28 34.84,-7.93 62.14,-28.74 86.01,-55.22 23.98,-26.59 52.77,-47.03 81.08,-68.77 132.43,-101.68 277.2,-182.41 425.16,-258.34 44.99,-23.09 91.18,-42.57 138.02,-61.42 93.76,-37.72 179.48,-22.72 261.61,31.52 42.03,27.74 83.17,57.68 127.94,80.26 115.28,58.15 216.11,135.26 303.87,228.69 62.6,66.67 124.94,134.87 159.07,222.37 6.46,16.55 19.12,21.06 34.35,23.15 -0.29,41.58 3.7,82.08 27.21,118.29 15.3,23.57 13.36,50.53 13.6,76.93"
         style="fill:#ebe1d9;fill-opacity:1;fill-rule:nonzero;stroke:none"
         transform="matrix(0.13333333,0,0,-0.13333333,0,1496)" />
      <path
         id="path9"
         d="m 6418.85,7783.58 c 29.53,-0.73 37.07,26.06 52.73,42.47 52.93,55.45 73.99,52.59 110.23,-15.77 5.54,-10.47 11.72,-20.91 15.19,-32.12 44.53,-143.75 111.32,-280.1 141.31,-428.8 5.37,-26.69 8.7,-52.34 5.13,-78.93 -2.5,-18.63 -19.16,-30.42 -38.55,-27.68 -8.7,1.24 -17.54,2.96 -25.75,5.97 -63.73,23.35 -127.55,45.18 -194.41,59.46 -39.13,8.37 -75.03,31.82 -112.38,48.48 0.77,35.29 2.86,70.62 2.01,105.86 -1.86,76.97 20.33,150.63 31.5,225.66 4.71,31.69 10.5,63.31 12.99,95.4"
         style="fill:#ebe1d9;fill-opacity:1;fill-rule:nonzero;stroke:none"
         transform="matrix(0.13333333,0,0,-0.13333333,0,1496)" />
      <path
         id="path10"
         d="m 5334,7302.33 c 0.92,38.7 -0.25,77.58 3.19,116.06 8.15,91.25 21.33,181.85 42.22,271.22 4.29,18.3 10.61,35.1 30.2,39.91 20.72,5.1 32.61,-11.35 44.22,-24.28 11.82,-13.15 22.99,-27.37 31.81,-42.64 22.26,-38.52 47.12,-76.27 63.53,-117.3 29.7,-74.3 53.52,-150.94 80.72,-226.27 19.16,-53.04 2.05,-93.57 -41.99,-123.9 -61.02,-42.03 -123.27,-82.31 -184.74,-123.72 -18.26,-12.31 -32.88,-7.42 -47.51,6.3 -18.63,17.46 -26.42,38.42 -25.53,63.89 1.87,53.56 2.74,107.15 4.02,160.73 -0.05,0 -0.1,0 -0.14,0"
         style="fill:#ebe1d9;fill-opacity:1;fill-rule:nonzero;stroke:none"
         transform="matrix(0.13333333,0,0,-0.13333333,0,1496)" />
      <path
         id="path11"
         d="m 5319.19,5788.78 c 19.72,-4.2 22.58,-19.75 16.93,-33.79 -13.26,-33.02 -27.96,-65.69 -45.04,-96.89 -32.84,-60 -68.5,-118.47 -101.66,-178.31 -118.92,-214.65 -194.97,-446.39 -269.83,-678.63 -37.7,-116.92 -48.97,-238.74 -68.96,-358.94 -1.28,-7.71 -0.32,-19.28 10.26,-20 7.54,-0.51 18.45,3.02 22.78,8.66 19.84,25.77 37.53,53.18 57,79.26 2.51,3.36 12.4,5.01 16.17,2.82 6.92,-4.04 16.67,-11.58 16.62,-17.59 -0.14,-14.33 -2.03,-30.53 -9.08,-42.53 -14.99,-25.55 -33.31,-49.19 -50.96,-73.09 -37.12,-50.26 -75.94,-99.28 -111.85,-150.38 -151.28,-215.26 -184.76,-453.47 -132.53,-706.64 17.3,-83.84 41.14,-166.35 62.93,-253.22 39.36,2.56 74.67,3.97 109.8,7.33 89.09,8.49 177.86,12.07 267.37,2.06 56.03,-6.26 112.96,-4.69 169.49,-5.97 20.56,-0.47 33.13,9.55 35.04,31.31 2.06,23.49 4.3,47.02 7.92,70.31 0.63,4.02 8.11,7.83 13.16,10.13 10.52,4.78 16.56,-3.23 21.3,-10.25 14.48,-21.31 7.76,-46.1 10.57,-69.39 1.02,-8.36 3.63,-18.44 9.23,-23.98 15.3,-15.1 87.79,1.5 95.68,20.82 1.13,2.75 2.13,5.63 2.62,8.54 22.07,133.26 -7.34,174.68 -140.85,161.85 -30.08,-2.9 -57.39,-14.15 -85.18,-25.08 -24.74,-9.73 -50.79,-16.48 -76.68,-22.73 -17.76,-4.28 -35.52,-1.02 -51.44,8.81 -8.08,4.99 -13.25,12.33 -10.31,21.91 1.5,4.9 6.4,12.51 9.8,12.53 58.46,0.32 108.09,29.23 161.36,46.98 45.28,15.09 93.72,15.73 141.48,8.46 66.36,-10.08 99.88,-42.74 109.44,-109.81 3.33,-23.38 1.88,-47.47 2.03,-71.25 0.11,-17.66 -0.74,-35.31 -1.28,-57.81 56.87,-2.57 112.82,-4.93 168.75,-7.75 17.79,-0.89 36.23,-1.4 50.2,-14.59 3.81,-3.58 6.35,-10.57 6.08,-15.83 -0.27,-5.18 -3.59,-12.2 -7.79,-14.73 -7.34,-4.44 -16.29,-8.02 -24.73,-8.42 -17.78,-0.85 -35.67,0.57 -53.52,1.1 -95.23,2.85 -190.32,3.41 -285.62,-2.61 -104.02,-6.58 -208.42,-5.87 -312.19,6.15 -59.5,6.88 -118.56,7.26 -178.16,1.57 -44.38,-4.24 -89.18,-4.02 -133.77,-6.17 -31.04,-1.5 -62.41,-4.15 -59.45,42.09 -39.4,43.4 -75.09,91.09 -119.14,129.1 -54.43,46.98 -118.18,73.53 -193.92,79.58 -180.46,14.42 -349.49,67.61 -501.54,169.94 -146.09,98.34 -246.14,231.25 -305.68,395.8 -43.83,121.12 -68.03,246.94 -78.27,374.64 -36.15,450.69 61.54,869.25 309.87,1249.53 35.69,54.65 77.77,105.24 118.22,156.65 68.15,86.64 161.29,139.33 259.49,182.95 60.23,26.76 123.68,39.5 191.36,27.38 72.37,-12.94 127.08,-48.91 164.38,-111.12 57.39,-95.7 51.77,-192.57 1.27,-288.89 -12.71,-24.2 -33.98,-40.99 -56.54,-55.99 -34.96,-23.23 -72.31,-40.98 -112.85,-52.34 -25.01,-7 -53.41,-9.75 -58.61,-44.78 -0.89,-5.99 -12.9,-12.45 -20.94,-14.91 -51.72,-15.86 -85.66,-54.66 -113.78,-95.98 -119.64,-175.82 -217.28,-361.61 -254.6,-574.63 -17.32,-98.8 -8.75,-195.86 7.59,-292.94 8.89,-52.72 22.28,-104.71 34.23,-156.89 29.05,-126.9 99.98,-227.65 197.31,-311.04 29.29,-25.11 62.19,-45.97 92.69,-69.76 45.71,-35.68 96.44,-57.28 154.52,-63.85 32.31,-3.65 64.33,-11.89 95.69,-20.85 11.11,-3.17 17.58,-16.9 12.02,-29.07 -3.23,-7.05 -13.14,-16.89 -18.73,-16.12 -73.29,10.18 -150.73,8.64 -215.82,48.31 -104.49,63.69 -203.32,135.3 -273.88,238.76 -43.95,64.46 -80.24,131.97 -95.49,209.63 -11.45,58.35 -26.28,116.03 -38.03,174.32 -34.52,171.35 -13.69,337.95 48.07,499.8 36.08,94.55 80.01,185.78 131.1,273.29 45.16,77.35 93.3,152.44 166.2,207.85 8.92,6.78 21.4,18.08 20.88,26.61 -3.31,55.1 33.09,51.46 70.41,54.13 35.58,2.54 69.36,16.16 101.58,32.04 91.12,44.89 135.01,139.52 104.97,238.72 -28.52,94.16 -93.02,154.25 -216.47,145.07 -75.73,-5.63 -144.09,-35.65 -203.75,-83.21 -22.88,-18.25 -43.18,-37.29 -71.79,-50.01 -27.79,-12.37 -48.94,-42.43 -69.6,-67.51 -124.06,-150.59 -220.76,-317.41 -288.39,-500.37 -126.65,-342.61 -163.53,-693.34 -89.63,-1053.09 9.56,-46.54 21.61,-92.79 36.02,-138.07 74.32,-233.5 229.89,-391.3 454.34,-484.47 96.98,-40.26 197.89,-68.03 302.1,-74.14 77.56,-4.55 145.33,-26.87 208.21,-69.65 9.7,-6.59 19.6,-12.77 32.94,-9.36 12.13,23.29 0.33,46.06 -4.4,68.39 -52.9,249.66 -20.72,485.45 115.67,703.51 30.82,49.28 47.78,101.61 55.41,158.39 8.7,64.87 19.88,129.42 28.44,194.33 20.35,154.4 68.33,301.21 119.55,447.39 76.92,219.54 166.38,433.04 291.13,630.51 20.58,32.56 36.16,68.32 53.58,102.84 6.64,13.14 10.68,28.03 27.2,32.81 l 6.16,-0.2 6.12,0.66"
         style="fill:#261f1b;fill-opacity:1;fill-rule:nonzero;stroke:none"
         transform="matrix(0.13333333,0,0,-0.13333333,0,1496)" />
      <path
         id="path12"
         d="m 7440.7,3477.58 c 33.33,-25.69 61.85,-54.08 52.84,-101.57 -2.18,-11.5 6.15,-22.43 20.78,-22.06 15.12,0.38 29.59,3.41 32.71,21.62 3.45,20.05 3.8,40.84 9.12,60.31 10.03,36.65 8.46,46.27 -16.37,58.66 -35.16,17.54 -67.44,15.51 -99.08,-16.96 z M 7202.41,4635.2 c 27.25,-26.01 22.36,-64.59 37.1,-95.86 13.83,-29.3 22.03,-61.63 29.8,-93.33 18.4,-75.08 36.15,-150.36 51.95,-226 7.49,-35.83 19.03,-69.05 43.35,-96.35 122.43,-137.5 153.28,-304.87 157.89,-480.91 0.39,-14.85 0.32,-29.83 -1.04,-44.61 -2.13,-23.4 5.18,-38.35 28.58,-48.22 18.75,-7.91 35.78,-21.41 51.39,-34.96 42.58,-36.94 56.58,-92.89 37.97,-145.83 -11.88,-33.81 -37.08,-53.69 -70.8,-61.6 -17.12,-4.01 -35.44,-3.69 -53.23,-3.93 -59.38,-0.81 -85.58,-8.92 -76.27,77.96 3.95,36.87 -6.67,75.98 -56.53,83.28 -7.12,1.05 -16.63,9.98 -18.53,17.03 -3.35,12.44 5.13,22.03 16.5,28.05 2.62,1.39 5.18,2.94 7.65,4.59 24.69,16.49 57.57,27.85 71.98,50.8 18.64,29.72 8.93,69.62 8,105.11 -1.94,74.71 -15.28,148.09 -34.04,220.08 -15.9,61.01 -44.24,117.76 -85.67,165.13 -51,58.31 -77.94,124.22 -88.9,200.34 -7.58,52.66 -25.19,103.91 -38.82,155.67 -2.09,7.95 -2.39,18.62 -16.4,18.59 -14.17,-12.22 -7.38,-30.33 -7.75,-46.15 -3.95,-169.6 -7.4,-339.21 -10.51,-508.83 -0.48,-26.71 -2.02,-54.07 2.72,-80.07 17.81,-97.77 14.36,-195.63 5.57,-293.68 -4.53,-50.42 -0.48,-100.08 6.89,-149.52 47.23,-12.88 92.15,-3.68 136.24,-7.95 14.94,-1.44 18.73,-13.05 17.95,-25.41 -0.76,-11.89 -4.08,-23.65 -19.13,-25.63 -5.88,-0.78 -11.8,-1.6 -17.72,-1.8 -175.28,-5.75 -350.55,-11.88 -525.86,-16.8 -41.58,-1.16 -83.35,0.67 -124.92,3.1 -74.22,4.35 -148.29,11.42 -222.69,2.14 -12.65,-1.58 -23.52,6.61 -24.02,20.12 -0.47,12.69 8.21,22.68 20.38,25.81 40.78,10.45 82.53,9.63 124.2,8.51 71.4,-1.9 142.79,-5.16 214.19,-5.63 48.37,-0.32 48.05,2.76 57.74,47.94 37.19,173.27 18.74,342.99 -28.41,511.62 -46.46,166.12 -88.58,333.33 -114.78,504.11 -1.77,11.56 -5.8,23.57 -3.98,34.59 1.11,6.73 10.63,13.36 17.88,17.21 3.45,1.83 11.33,-1.68 15.61,-4.89 17.98,-13.48 24.19,-33.97 26.86,-54.53 18.02,-139.01 56.38,-273.68 88.36,-409.59 23.15,-98.38 50.03,-195.5 63.97,-296.14 10.78,-77.72 11.4,-153.93 -0.67,-230.93 -4.6,-29.36 -8.54,-58.9 -10.91,-88.51 -1.58,-19.79 13.73,-23.94 29.41,-24.08 12.33,-0.11 23.91,3.81 24.59,18.8 1.06,23.57 0.37,47.22 1.84,70.75 0.26,4.01 7.13,8.58 11.89,11.12 9.6,5.13 16.73,-0.95 22.92,-7.43 10.99,-11.54 12.19,-26.59 14.27,-41.32 1.67,-11.73 2.07,-24.05 6.22,-34.9 4.36,-11.46 13.86,-18.47 27.97,-16.34 15.18,2.29 19.15,12.34 17.11,25.07 -3.25,20.28 -8.65,40.23 -11.53,60.55 -0.63,4.45 4.7,13.22 8.62,14.1 7.73,1.76 17.96,2 24.33,-1.83 13.41,-8.05 16.39,-23.54 21.3,-37.67 4.77,-13.73 11.52,-27 19.23,-39.34 2.04,-3.27 11.02,-3.88 16.34,-2.98 4.99,0.85 11.77,4.31 13.5,8.42 3.3,7.87 5.79,17.27 4.78,25.57 -7.63,62.54 -1.17,124.81 1.75,187.21 3.33,71.43 3.58,142.71 -11.55,213.38 -4.29,20.02 -3.97,41.34 -3.53,62.01 4.76,223.18 9.93,446.36 15.15,669.52 0.57,23.79 1.53,47.6 3.56,71.29 2.03,23.73 18.31,36.07 38.89,44.01 -0.01,0 6.9,-0.34 6.9,-0.34 l 6.9,0.31"
         style="fill:#261f1b;fill-opacity:1;fill-rule:nonzero;stroke:none"
         transform="matrix(0.13333333,0,0,-0.13333333,0,1496)" />
      <path
         id="path13"
         d="m 6127.65,3306.39 c 30.56,38.98 38.14,86.39 43.9,131.07 11.41,88.45 15.19,177.9 21.63,266.97 0.85,11.73 -3.72,24.19 -1.37,35.39 5.18,24.73 -67.4,27.36 -17.37,63.26 -2.43,29.26 -4.48,58.56 -7.41,87.78 -2.97,29.61 -8.08,59.04 -10.02,88.7 -4.32,66.28 7.15,131.36 27.27,193.57 39.47,122.1 71.37,245.62 88.65,372.83 0.79,5.82 2.36,11.68 4.5,17.16 4.73,12.07 14.49,20.32 26.76,17.58 7.14,-1.59 16.14,-10.91 17.67,-18.16 2.98,-14.24 3.68,-29.85 1.24,-44.2 -15.99,-93.84 -31.07,-187.84 -61.21,-278.72 -15.88,-47.9 -30.61,-96.5 -41.1,-145.8 -18.16,-85.39 -21.26,-170.72 14.4,-253.72 5.69,-13.25 7.85,-28.72 8.57,-43.31 7.12,-143.29 -1.29,-285.59 -31.95,-425.97 -6.3,-28.85 -16.59,-57.22 -28.29,-84.39 -19.4,-45.04 -55.85,-71.25 -104.38,-71.34 -59.39,-0.1 -119.26,2.59 -178.06,10.48 -53.65,7.19 -82.25,43.49 -85.05,98.87 -1.65,32.6 1.05,65.46 2.47,98.18 4.26,99.13 -8.69,194.24 -44.28,288.57 -47.2,125.11 -87.95,252.65 -135.71,377.75 -26.41,69.18 -46.74,141.46 -61.95,213.99 -23.88,113.95 -55.71,225.08 -96.63,333.91 -13.58,36.15 -25.52,73.07 -35.37,110.4 -4.39,16.67 -3.43,35.39 -1.43,52.77 0.68,5.78 11.6,11.87 19.02,14.72 3.48,1.32 11.38,-3.55 14.43,-7.71 5.14,-7.01 10.06,-15.33 11.53,-23.73 10.32,-59.19 34.31,-113.85 55.73,-169.27 34.4,-89.04 61.85,-180.1 79.95,-273.74 20.99,-108.56 56.5,-212.32 95.48,-315.5 45.17,-119.59 88.38,-240.05 127.58,-361.7 22.87,-70.98 25.82,-146.2 25.4,-220.81 -0.18,-32.75 -2.12,-65.49 -2.35,-98.24 -0.1,-14.66 -0.54,-29.77 9.19,-42.71 7.5,-9.97 15.7,-17.04 29.44,-14.92 11.48,1.75 13.19,11.32 14.17,19.06 2.22,17.65 2.69,35.55 3.08,53.36 0.32,14.83 -1.51,29.77 -0.47,44.53 0.84,11.65 3.49,24.45 18.67,26.08 18.73,2.01 26.48,-11.11 29.2,-26.1 3.16,-17.44 4.02,-35.42 4.54,-53.2 0.54,-17.83 -1.77,-35.79 -0.34,-53.5 0.62,-7.57 6.59,-19.93 11.88,-20.94 17.11,-3.23 35.21,-3.9 52.54,-1.94 6.25,0.71 14.74,10.93 16.32,18.11 4.42,20.23 5.8,41.14 8.35,61.78 1.84,14.82 2.93,33.01 21.36,33.98 23.14,1.2 26.31,-18.97 29,-36.79 2.12,-14.12 -4.15,-29.9 10.82,-44.44"
         style="fill:#261f1b;fill-opacity:1;fill-rule:nonzero;stroke:none"
         transform="matrix(0.13333333,0,0,-0.13333333,0,1496)" />
      <path
         id="path14"
         d="m 6931.46,7302.07 c -18.72,-34.64 -21.94,-70.35 -21.74,-110.41 0.28,-60.99 21.33,-108.12 61.36,-150.4 8.04,-8.49 15.18,-18.21 20.84,-28.42 7.61,-13.73 -4,-35.09 -22.78,-42.21 -12.22,-4.63 -26.03,-2.22 -29.31,10.78 -13.72,54.52 -65.51,84.26 -85.4,134.42 -7.99,27.9 -42.98,27.81 -54.26,52.31 14.6,26.85 -3.77,66.6 35.02,85.57 5.59,2.74 3.25,28.12 -0.16,41.84 -27.27,109.6 -60.79,217.1 -108.45,319.9 -51.35,110.74 -119.55,211.19 -182.2,311.41 -24.74,0.83 -28.99,-15.09 -34.78,-27.9 -29.34,-64.89 -58.84,-129.71 -86.7,-195.23 -34.08,-80.15 -46.27,-165.43 -55.74,-251.2 -1.91,-17.16 -0.33,-36.68 -23.92,-41.49 0.01,-0.01 0.98,-0.06 0.98,-0.06 -24.16,3.25 -25.47,22.5 -24.88,39.73 2.22,65.36 10.04,130.14 27.72,193.3 31.34,111.98 81.32,216.26 134.42,319.01 20.81,40.24 52.05,43.65 86.75,13.24 6.59,-5.77 12.76,-12.51 17.48,-19.86 89.78,-139.61 184.78,-276.48 238.51,-435.72 19.89,-58.95 37.1,-118.81 56.13,-178.06 6.36,-19.78 20.18,-16.99 34.55,-8.9 5.52,-10.55 11.04,-21.1 16.56,-31.65"
         style="fill:#261f1b;fill-opacity:1;fill-rule:nonzero;stroke:none"
         transform="matrix(0.13333333,0,0,-0.13333333,0,1496)" />
      <path
         id="path15"
         d="m 5319.19,5788.78 -6.12,-0.66 -6.16,0.2 c 17.77,15.41 1.98,33.21 3.51,49.79 1.69,18.33 24.38,25.34 22.98,46.1 -2.78,41.2 31.81,61.55 52.85,89.24 9.55,12.57 40.38,2.32 36.03,28.98 -3.02,18.49 -23.03,25.68 -37.07,35.88 -92.89,67.5 -136.01,162.4 -151.18,272.84 -2.86,20.78 -4.71,42.01 5.8,61.02 3.73,6.74 13.07,13.98 20.09,14.25 6.74,0.24 16.39,-6.82 20.03,-13.31 3.99,-7.13 2.49,-17.3 3.5,-26.13 7.53,-66.12 7.4,-64.71 73.51,-58.34 175.03,16.89 348.5,41.3 515.88,98.2 11.19,3.8 23.04,7.76 34.57,7.76 7.35,-0.01 16.63,-5.6 21.58,-11.55 8.32,-10.02 -1.32,-16.55 -9.17,-19 -141.88,-44.3 -283.39,-89.85 -433.38,-99.79 -50.36,-3.34 -100.41,-11.74 -150.44,-18.98 -21.19,-3.05 -28.09,-18.97 -18.62,-39.45 22.92,-49.55 56.02,-90.22 100.45,-122.91 45.45,-33.44 88.8,-69.8 132.06,-106.07 15.91,-13.34 30.23,-29.97 30.74,-52.4 0.17,-7.69 -4.49,-18.61 -10.51,-22.42 -5.75,-3.65 -19.02,-3.31 -24.04,1.02 -31.41,27.05 -56.32,61.32 -92.83,82.87 -16.11,9.52 -30.43,5.55 -30.62,-12.08 -0.3,-25.3 -7.09,-46.29 -23.87,-65.02 -7.81,-8.71 -20.56,-20.85 -18.89,-28.92 10.65,-51.39 -31.92,-61.15 -60.22,-82.44 -1.5,-1.11 -0.36,-5.71 -0.46,-8.68"
         style="fill:#261f1b;fill-opacity:1;fill-rule:nonzero;stroke:none"
         transform="matrix(0.13333333,0,0,-0.13333333,0,1496)" />
      <path
         id="path16"
         d="m 5641.51,7310.49 c -1.2,-4.18 -1.73,-10.5 -4.76,-15.22 -2.89,-4.51 -7.86,-8.62 -12.83,-10.65 -9.15,-3.73 -17.83,0.11 -22.76,7.74 -4.65,7.2 -8.86,15.93 -9.49,24.27 -4.61,59.87 -25.47,116.01 -40.11,173.42 -22.42,87.96 -74.01,161.57 -125.53,234.32 -18.1,25.56 -39.08,22.28 -55.72,-4.82 -34.5,-56.17 -55.03,-118.47 -77.51,-179.86 -15.32,-41.86 -29.53,-84.14 -46.23,-125.44 -4.08,-10.11 -15.78,-17.99 -29.46,-11.6 -12.74,5.96 -16.82,18.35 -13.09,29.57 33.72,101.46 61.1,205.46 111.61,300.53 50.99,95.94 103.13,91.02 161.5,14.9 94.11,-122.72 146.83,-264.03 164.75,-417.91 0.67,-5.84 -0.19,-11.87 -0.37,-19.25"
         style="fill:#261f1b;fill-opacity:1;fill-rule:nonzero;stroke:none"
         transform="matrix(0.13333333,0,0,-0.13333333,0,1496)" />
      <path
         id="path17"
         d="m 7197.12,4929.36 c -1.16,-15.78 -1.57,-27.66 -3.04,-39.43 -1.58,-12.73 -8.24,-23.32 -21.48,-24.43 -18.11,-1.53 -26.53,11.32 -28.15,27.08 -9.15,88.6 -14.99,177.63 -26.79,265.86 -23.24,173.66 -49.53,346.92 -74.85,520.3 -5.6,38.38 -10.17,76.68 -1.26,115.03 2.18,9.36 10.93,14.03 20.03,13.1 5.1,-0.51 12.27,-4.79 14.05,-9.18 5.49,-13.5 10.86,-27.62 12.7,-41.96 32.15,-250.35 77.9,-498.86 102.23,-750.28 2.57,-26.6 4.61,-53.26 6.56,-76.09"
         style="fill:#261f1b;fill-opacity:1;fill-rule:nonzero;stroke:none"
         transform="matrix(0.13333333,0,0,-0.13333333,0,1496)" />
      <path
         id="path18"
         d="m 7129.87,6636.87 c -2.85,-48.47 -12.52,-95.08 -25.99,-140.76 -3.98,-13.49 -14.16,-25.52 -23.12,-36.97 -2.53,-3.22 -11.29,-3.73 -16.26,-2.28 -5.02,1.45 -10.26,6.13 -12.85,10.81 -2.62,4.74 -3.6,11.48 -2.68,16.89 2.52,14.6 6.6,28.94 9.75,43.44 28.58,130.97 19.81,123.89 -93.08,106.41 -158.57,-24.55 -316.75,-51.13 -469.38,-102.95 -11.17,-3.79 -23.42,-6.86 -33.99,0.81 -3.12,2.26 -5.2,10.48 -3.55,14 6.94,14.75 22.02,18.1 35.95,23.07 75.69,26.98 153.37,47.29 232.09,62.25 99.13,18.83 199.02,33.64 298.61,50.1 37.45,6.18 41.87,14.92 38.54,54.14 -3.69,43.37 -27.62,77.67 -44.75,115.21 -5.82,12.75 1.24,24.19 12.92,28.8 6.91,2.73 18.69,1.65 24.47,-2.72 32.59,-24.69 47.29,-61.5 55.02,-99.1 9.54,-46.34 12.5,-94.04 18.3,-141.15"
         style="fill:#261f1b;fill-opacity:1;fill-rule:nonzero;stroke:none"
         transform="matrix(0.13333333,0,0,-0.13333333,0,1496)" />
      <path
         id="path19"
         d="m 6811.5,4645.13 c 6.84,19.99 14.83,51.89 28.33,81.26 43.63,94.91 71.34,194.26 91.61,296.44 9.75,49.22 25.73,97.32 41.16,145.19 2.97,9.21 15.38,18.14 29.17,12.24 12.79,-5.48 17.01,-16.69 14.17,-28.86 -23.62,-100.94 -46.32,-202.13 -72.56,-302.39 -11.18,-42.73 -27.1,-84.92 -46.6,-124.54 -13.17,-26.74 -27.55,-51.97 -32.33,-81.86 -1.34,-8.41 -5.96,-16.89 -11.01,-23.96 -7.02,-9.82 -16.56,-17.66 -30,-13.54 -14.35,4.39 -14.4,16.36 -11.94,40.02"
         style="fill:#261f1b;fill-opacity:1;fill-rule:nonzero;stroke:none"
         transform="matrix(0.13333333,0,0,-0.13333333,0,1496)" />
      <path
         id="path20"
         d="m 5231.43,6900.29 c -4.26,10.41 -11.83,20.72 -12.17,31.25 -1.16,35.66 -20.26,58.94 -47.81,77.63 0.43,11.56 0.85,23.12 1.28,34.69 21.99,-0.18 33,9.47 29.01,32.48 -10.25,58.98 -10.85,118.46 -8.68,178.03 0.87,23.74 1.15,47.89 13.63,69.31 5.98,10.28 13.41,19.79 27.22,18.63 15.31,-1.27 18.26,-12.78 18.23,-25.02 -0.03,-11.84 -1.61,-23.69 -2.63,-35.51 -7.19,-83.44 -2.39,-166.27 8.12,-249.32 3.79,-29.96 15.93,-48.76 40.13,-64.03 17.45,-11.01 32.88,-25.2 49.22,-37.97 -8.26,-6.21 -16.51,-12.42 -24.77,-18.63 -2.71,0.88 -5.5,1.58 -8.11,2.69 -34.04,14.66 -34.03,14.67 -60.96,-15.1 -7.23,0.3 -14.48,0.59 -21.71,0.87"
         style="fill:#261f1b;fill-opacity:1;fill-rule:nonzero;stroke:none"
         transform="matrix(0.13333333,0,0,-0.13333333,0,1496)" />
      <path
         id="path21"
         d="m 6344.22,7410.98 c 0,0 -0.97,0.05 -0.98,0.06 -5.36,-12.09 -4.38,-24.1 7.76,-30 15.64,-7.6 33.47,-10.74 49,-18.51 11.27,-5.66 15.54,-18.99 11.37,-30.48 -2.42,-6.66 -11.68,-12.37 -19.13,-15.24 -7.95,-3.08 -17.4,-2.31 -26.18,-3.22 -4.47,-19.66 9.8,-33.05 15.58,-49.05 8.44,-23.35 7.41,-46 -3.23,-45.22 -18.57,1.35 -21.94,17.21 -28.85,29.7 -4.29,7.76 -8.75,15.45 -12.53,23.46 -19.42,41.1 -50.08,61.23 -97.12,64.02 -49.92,2.96 -99.4,13.82 -148.95,21.95 -8.68,1.42 -15.36,7.46 -16.24,17.72 -1.27,14.85 8.21,23.51 20.08,23.65 29.39,0.36 58.85,-1.75 88.19,-4.05 44.18,-3.45 88.22,-8.72 132.43,-11.5 16.47,-1.05 26.41,10 28.8,26.71"
         style="fill:#261f1b;fill-opacity:1;fill-rule:nonzero;stroke:none"
         transform="matrix(0.13333333,0,0,-0.13333333,0,1496)" />
      <path
         id="path22"
         d="m 6165.92,6479.45 c -28.15,4.32 -67.87,-2.48 -69,38.37 -0.98,35.52 36.46,43.88 64,52.39 28.14,8.69 58.04,12.59 87.47,15.96 21.9,2.51 42.12,-5.1 52,-26.64 8,-17.44 3.4,-34.9 -7.58,-50.36 -8.79,-12.39 -19.81,-22.03 -34.69,-26.52 -16.95,0.18 -34.23,1.3 -44.93,-16.02 -6.18,0.04 -12.36,0.09 -18.54,0.14 -7.2,9.62 -16.8,13.78 -28.73,12.68"
         style="fill:#261f1b;fill-opacity:1;fill-rule:nonzero;stroke:none"
         transform="matrix(0.13333333,0,0,-0.13333333,0,1496)" />
      <path
         id="path23"
         d="m 6213.19,6466.63 c 10.7,17.32 27.98,16.2 44.93,16.02 7.62,-25.12 15.16,-50.27 22.94,-75.35 3.59,-11.55 9.53,-21.4 21.3,-26.59 13.76,-6.05 29.64,-13.68 22.96,-31.28 -7.36,-19.38 -29.09,-25.34 -44.61,-17.1 -33,17.52 -53.23,5.67 -72.89,-20 -4.77,-6.24 -14.84,-10.08 -23.09,-11.59 -11.77,-2.15 -24.92,0.26 -29.79,12.58 -2.72,6.89 -2.09,20.49 2.49,24.04 35.1,27.26 45.06,68.03 60.63,106 3.98,9.71 0.79,16.37 -4.87,23.27"
         style="fill:#261f1b;fill-opacity:1;fill-rule:nonzero;stroke:none"
         transform="matrix(0.13333333,0,0,-0.13333333,0,1496)" />
      <path
         id="path24"
         d="m 5973.72,6244.14 c -2.87,-4.84 -4.56,-12.05 -8.8,-14.19 -97.56,-49.13 -195.27,-97.96 -293.48,-145.78 -5.57,-2.71 -15.54,3.61 -23.46,5.72 2.65,8.07 2.94,18.8 8.43,23.65 10.89,9.58 24.12,17.01 37.31,23.43 77.02,37.53 154.31,74.51 231.5,111.66 13.14,6.32 26.03,13.77 41.62,9.06 7.47,-2.26 9.8,-6.64 6.88,-13.55"
         style="fill:#261f1b;fill-opacity:1;fill-rule:nonzero;stroke:none"
         transform="matrix(0.13333333,0,0,-0.13333333,0,1496)" />
      <path
         id="path25"
         d="m 6642.62,7366.39 c -2.82,-7.25 -5.49,-15.62 -9.21,-23.5 -36.54,-77.4 -75.49,-153.71 -102.71,-235.24 -3.46,-10.37 -13.13,-19.18 -21.47,-27.09 -2.53,-2.41 -12.32,-1.35 -15.2,1.6 -8.25,8.45 -7.06,-5.47 -6.11,6.4 0.23,2.92 -0.39,6.08 0.51,8.75 31.86,95.36 71.35,187.46 118.55,276.23 1.38,2.59 2.76,5.55 4.95,7.3 7.37,5.83 16.2,7.55 23.65,1.79 3.78,-2.92 4.45,-9.87 7.04,-16.24"
         style="fill:#261f1b;fill-opacity:1;fill-rule:nonzero;stroke:none"
         transform="matrix(0.13333333,0,0,-0.13333333,0,1496)" />
      <path
         id="path26"
         d="m 5322.21,6911.83 c 8.26,6.21 16.51,12.42 24.77,18.63 23.94,-17.1 48.31,-33.62 71.72,-51.42 44.84,-34.08 89.5,-68.29 139.6,-94.67 18.35,-9.67 36.6,-20.6 44.98,-41.02 1.45,-3.53 -3.17,-10.08 -6.02,-14.57 -1.24,-1.95 -5.03,-2.69 -7.8,-3.15 -2.77,-0.44 -6.35,-0.89 -8.49,0.42 -90.68,55.76 -182.84,109.48 -258.76,185.78"
         style="fill:#261f1b;fill-opacity:1;fill-rule:nonzero;stroke:none"
         transform="matrix(0.13333333,0,0,-0.13333333,0,1496)" />
      <path
         id="path27"
         d="m 6663.63,6441.94 c -47.01,-2.98 -94.01,-6.24 -141.06,-8.37 -3.6,-0.15 -9.54,7.23 -10.72,12.01 -0.96,3.86 2.81,12.53 5.84,13.23 95.07,22.04 191.21,32.09 288.81,23.42 7.32,-0.65 9.57,-4.96 10.78,-11.95 1.92,-11.08 -4.85,-18.18 -12.55,-18.74 -47.01,-3.44 -94.11,-5.32 -141.19,-7.72 0.02,-0.63 0.06,-1.25 0.09,-1.88"
         style="fill:#261f1b;fill-opacity:1;fill-rule:nonzero;stroke:none"
         transform="matrix(0.13333333,0,0,-0.13333333,0,1496)" />
      <path
         id="path28"
         d="m 5869.96,7352.43 c -2.35,-5.27 -3.21,-12.85 -7.27,-15.47 -54.87,-35.36 -94.88,-86.97 -143.23,-129.37 -8.52,-7.48 -19.27,-13.87 -30.07,-16.79 -6.95,-1.88 -17.01,1.73 -23.6,6.04 -8.33,5.45 -8.25,17.23 -2.4,22.97 47.89,47.07 87.12,103.26 144.55,140.23 11.86,7.64 26.48,11.39 40.27,15.49 8.46,2.53 24.16,-15.12 21.75,-23.1"
         style="fill:#261f1b;fill-opacity:1;fill-rule:nonzero;stroke:none"
         transform="matrix(0.13333333,0,0,-0.13333333,0,1496)" />
      <path
         id="path29"
         d="m 5417.85,7042.81 c 4.17,5.77 6.48,12.33 10.45,13.59 4.87,1.53 12.53,0.46 16.61,-2.62 73.1,-55.15 141.55,-115.74 207.82,-178.84 2.09,-1.99 4.66,-4.75 4.78,-7.27 0.25,-5.27 0.8,-12.05 -2.05,-15.54 -3.14,-3.83 -10.67,-7.34 -15,-6.18 -8.17,2.18 -16.48,6.61 -22.9,12.19 -62.37,54.27 -124.5,108.82 -186.27,163.79 -6.1,5.44 -9.25,14.19 -13.44,20.88"
         style="fill:#261f1b;fill-opacity:1;fill-rule:nonzero;stroke:none"
         transform="matrix(0.13333333,0,0,-0.13333333,0,1496)" />
      <path
         id="path30"
         d="m 5172.73,7043.86 c -0.43,-11.57 -0.85,-23.13 -1.28,-34.69 -72.25,33.09 -138.11,76.85 -202.94,122.21 -9.32,6.51 -17.1,15.84 -23.84,25.13 -2.69,3.7 -2.48,11.9 -0.14,16.11 2.19,3.91 8.92,7.06 13.77,7.24 5.44,0.22 11.72,-2.21 16.45,-5.31 66.11,-43.38 132.02,-87.07 197.98,-130.69"
         style="fill:#261f1b;fill-opacity:1;fill-rule:nonzero;stroke:none"
         transform="matrix(0.13333333,0,0,-0.13333333,0,1496)" />
      <path
         id="path31"
         d="m 6800.17,7168.14 c 11.28,-24.5 46.27,-24.41 54.26,-52.31 -17.13,13.83 -33.18,22.33 -53.27,2.45 -41.97,-41.54 -85.17,-81.87 -128.47,-122.05 -5.92,-5.5 -15.06,-8.55 -23.21,-10.07 -2.83,-0.53 -9.63,6.59 -10.38,10.95 -2.9,16.9 9.95,27.52 19.94,37.24 46.43,45.22 93.98,89.3 141.13,133.79"
         style="fill:#261f1b;fill-opacity:1;fill-rule:nonzero;stroke:none"
         transform="matrix(0.13333333,0,0,-0.13333333,0,1496)" />
      <path
         id="path32"
         d="m 6931.46,7302.07 c -5.52,10.55 -11.04,21.1 -16.56,31.65 30.29,57.57 60.48,115.19 90.97,172.65 2.67,5.04 6.5,10.2 11.14,13.24 4.59,3 11.58,5.62 16.25,4.22 4.01,-1.21 8.45,-8.22 8.74,-12.91 0.52,-8.56 0.35,-18.45 -3.43,-25.77 -32.48,-62.88 -61.58,-127.83 -107.11,-183.08"
         style="fill:#261f1b;fill-opacity:1;fill-rule:nonzero;stroke:none"
         transform="matrix(0.13333333,0,0,-0.13333333,0,1496)" />
      <path
         id="path33"
         d="m 5231.43,6900.29 c 7.23,-0.28 14.48,-0.57 21.71,-0.87 5.83,-29.25 8.19,-56.95 -7.94,-85.51 -15.83,-28.06 -27.42,-58.83 -27.25,-92.65 0.08,-14.66 -12.47,-19.62 -24.6,-19.26 -16.67,0.51 -28.38,11.25 -29.14,27.38 -0.68,14.25 1.61,29.96 7.28,42.97 18.84,43.15 39.8,85.36 59.94,127.94"
         style="fill:#261f1b;fill-opacity:1;fill-rule:nonzero;stroke:none"
         transform="matrix(0.13333333,0,0,-0.13333333,0,1496)" />
      <path
         id="path34"
         d="m 5701.7,6448.21 c 19.5,-2.98 51.69,-7.47 83.64,-13.29 4.12,-0.75 9.17,-8.08 9.94,-12.98 1.5,-9.45 -4.02,-17.78 -13.94,-17.12 -53.03,3.53 -106.73,1.66 -158.38,17.26 -5.12,1.54 -9.01,7.17 -13.48,10.9 5.76,5.67 11.16,15.73 17.34,16.21 20.49,1.63 41.28,-0.18 74.88,-0.98"
         style="fill:#261f1b;fill-opacity:1;fill-rule:nonzero;stroke:none"
         transform="matrix(0.13333333,0,0,-0.13333333,0,1496)" />
      <path
         id="path35"
         d="m 6963.49,6143.33 c -1.36,31.14 -3.77,61.19 -37.03,78 -7.19,3.63 -7.81,16.58 -1.26,23.33 5.32,5.49 14.78,11.21 21.5,10.28 19.96,-2.79 39.51,-8.65 59.15,-13.6 32.7,-8.24 40.13,-23.51 14.44,-45.18 -22.74,-19.18 -9.61,-35.57 -9.18,-53.83 -15.88,0.34 -31.74,0.67 -47.62,1"
         style="fill:#261f1b;fill-opacity:1;fill-rule:nonzero;stroke:none"
         transform="matrix(0.13333333,0,0,-0.13333333,0,1496)" />
      <path
         id="path36"
         d="m 6555.81,6747 c -19.38,1.39 -41.21,22.99 -40.44,40.02 1.39,30.38 31.19,56.35 59.31,51.67 20.06,-3.35 36.78,-24.44 35.02,-44.2 -2.32,-26.1 -28.65,-49.29 -53.89,-47.49"
         style="fill:#261f1b;fill-opacity:1;fill-rule:nonzero;stroke:none"
         transform="matrix(0.13333333,0,0,-0.13333333,0,1496)" />
      <path
         id="path37"
         d="m 6866.4,6798.61 c -1.7,-5.45 -1.71,-12.82 -5.36,-16.04 -41.93,-36.94 -90.68,-62.34 -142.8,-81.42 -3.8,-1.39 -12.77,2.37 -14.43,5.99 -3.62,7.94 -1.74,17.5 6.38,22.27 45.13,26.54 90.58,52.53 136.03,78.54 2.38,1.36 6.56,2.46 8.4,1.3 4.4,-2.79 7.91,-6.99 11.78,-10.64"
         style="fill:#261f1b;fill-opacity:1;fill-rule:nonzero;stroke:none"
         transform="matrix(0.13333333,0,0,-0.13333333,0,1496)" />
      <path
         id="path38"
         d="m 6733.36,4571.85 c -7.64,-34.25 -17.37,-65.19 -40.08,-89.94 -8.46,-9.21 -21.13,-13.13 -32.3,-6.56 -10.57,6.21 -16.31,17.42 -9.64,30.12 13.73,26.17 27.54,52.35 42.6,77.77 4.51,7.61 14.83,11.42 23.18,6.3 6.81,-4.18 11.31,-12.11 16.24,-17.69"
         style="fill:#261f1b;fill-opacity:1;fill-rule:nonzero;stroke:none"
         transform="matrix(0.13333333,0,0,-0.13333333,0,1496)" />
      <path
         id="path39"
         d="m 6372.59,4698.16 c -1.49,-19.12 -1.7,-22.04 -1.95,-24.95 -3.05,-35.6 -16.64,-58.9 -30.72,-52.36 -23.43,10.9 -21.18,32.95 -19.81,52.94 1.2,17.34 5.21,34.62 9.27,51.62 3.02,12.66 12.58,20.57 25.53,17.9 12.75,-2.62 17.69,-13.94 18,-26.36 0.29,-11.65 -0.43,-23.34 -0.32,-18.79"
         style="fill:#261f1b;fill-opacity:1;fill-rule:nonzero;stroke:none"
         transform="matrix(0.13333333,0,0,-0.13333333,0,1496)" />
      <path
         id="path40"
         d="m 6533.23,4407.71 c -0.61,-5.53 0.89,-13.34 -2.2,-16.27 -20.87,-19.69 -41.6,-39.87 -64.68,-56.72 -11.79,-8.6 -28.75,-7.71 -38.36,6.77 -7.07,10.67 -3.87,22.05 6.4,30.31 22.33,17.94 40.12,42.6 70.16,49.2 12.14,2.65 22.17,-2.26 28.68,-13.29"
         style="fill:#261f1b;fill-opacity:1;fill-rule:nonzero;stroke:none"
         transform="matrix(0.13333333,0,0,-0.13333333,0,1496)" />
      <path
         id="path41"
         d="m 6983.22,6002.92 c 3.2,-9.53 -1.15,-17.63 -8.28,-22.87 -21.41,-15.73 -43.1,-31.21 -65.6,-45.3 -10.37,-6.49 -23.67,-7.15 -30.2,5.78 -3.48,6.88 -4.79,18.66 -1.18,24.68 17.45,29.12 44.36,46.79 77.33,53.69 11.72,2.45 23.04,-2.53 27.93,-15.98"
         style="fill:#261f1b;fill-opacity:1;fill-rule:nonzero;stroke:none"
         transform="matrix(0.13333333,0,0,-0.13333333,0,1496)" />
      <path
         id="path42"
         d="m 6609.16,5828.04 c -9.58,0.83 -15.99,-0.08 -20.99,2.16 -7.61,3.41 -15.79,8.26 -14.25,18.77 0.79,5.44 1.88,12.76 5.59,15.55 32.96,24.74 69.74,25.27 107,12.91 5.8,-1.92 12.23,-13.9 11.48,-20.45 -0.79,-6.93 -8.93,-17.24 -15.39,-18.57 -25.38,-5.23 -51.37,-7.49 -73.44,-10.37"
         style="fill:#261f1b;fill-opacity:1;fill-rule:nonzero;stroke:none"
         transform="matrix(0.13333333,0,0,-0.13333333,0,1496)" />
      <path
         id="path43"
         d="m 5750.38,6588.08 c -2.47,-20.32 -23.92,-38.25 -42.31,-35.37 -23.06,3.59 -40.21,28.81 -35.09,51.62 3.84,17.08 21.49,32.07 36.94,31.35 22.71,-1.04 43.21,-25.15 40.46,-47.6"
         style="fill:#261f1b;fill-opacity:1;fill-rule:nonzero;stroke:none"
         transform="matrix(0.13333333,0,0,-0.13333333,0,1496)" />
      <path
         id="path44"
         d="m 7006.4,6123.84 c 5.17,-10.49 11.17,-20.67 15.31,-31.55 4.75,-12.52 0.26,-22.47 -11.56,-29.18 -13.66,-7.76 -28.42,-8.65 -42.79,-4.73 -14.09,3.84 -28.79,9.74 -31.26,26.89 -2.75,19.13 11.66,24.14 26.15,29.1 5.22,1.79 9.42,6.6 14.08,10.03 10.03,-0.19 20.05,-0.38 30.07,-0.56"
         style="fill:#261f1b;fill-opacity:1;fill-rule:nonzero;stroke:none"
         transform="matrix(0.13333333,0,0,-0.13333333,0,1496)" />
      <path
         id="path45"
         d="m 7202.41,4635.2 -6.9,-0.31 c 0,0 -6.91,0.34 -6.9,0.34 -2.49,5.01 -4.12,10.73 -7.59,14.92 -28.77,34.7 -29.18,35.61 -11.18,64.86 7.52,12.19 15.73,24.76 33.29,19.01 14.77,-4.84 20.4,-23.97 12.47,-43.69 -7.16,-17.81 -25.92,-32.62 -13.19,-55.13"
         style="fill:#261f1b;fill-opacity:1;fill-rule:nonzero;stroke:none"
         transform="matrix(0.13333333,0,0,-0.13333333,0,1496)" />
      <path
         id="path46"
         d="m 5755.72,6907.8 c -2.35,-9.92 -4.03,-18.43 -6.57,-26.68 -0.62,-2.01 -3.97,-3.31 -6.23,-4.66 -6.23,-3.75 -12.57,-3 -15.38,3.55 -12.86,29.92 -17.49,61.18 -11.08,93.29 0.85,4.3 8.05,9.37 12.95,10.18 3.76,0.61 11.5,-4.2 12.38,-7.83 5.5,-22.73 9.57,-45.8 13.93,-67.85"
         style="fill:#261f1b;fill-opacity:1;fill-rule:nonzero;stroke:none"
         transform="matrix(0.13333333,0,0,-0.13333333,0,1496)" />
      <path
         id="path47"
         d="m 7028.77,6349.24 c 0.48,5.88 -0.67,12.44 1.76,17.16 4.18,8.13 12.15,12.03 21.53,9.08 8.69,-2.74 17.32,-8.8 15.07,-18.12 -5.66,-23.39 -28.43,-41.04 -18.94,-70.38 3.56,-11 -12.68,-18.4 -24.82,-18.92 -12.12,-0.53 -22.59,4.43 -27.39,17.01 -5.49,14.38 3.7,23.06 14.11,27.88 16.74,7.73 33.06,13.58 18.68,36.29"
         style="fill:#261f1b;fill-opacity:1;fill-rule:nonzero;stroke:none"
         transform="matrix(0.13333333,0,0,-0.13333333,0,1496)" />
      <path
         id="path48"
         d="m 5251.74,6539.03 c -1.81,-8.94 -3.37,-26.65 -9.35,-42.71 -3.72,-9.97 -13.56,-19.08 -26.87,-17.22 -13.88,1.94 -19.96,12.91 -19.17,24.87 1.13,17.23 4.62,34.49 8.89,51.27 4.27,16.76 21.51,27.06 31.96,20.99 10.51,-6.11 14.73,-14.45 14.54,-37.2"
         style="fill:#261f1b;fill-opacity:1;fill-rule:nonzero;stroke:none"
         transform="matrix(0.13333333,0,0,-0.13333333,0,1496)" />
      <path
         id="path49"
         d="m 7179.12,4768.96 c -4.22,5.22 -11.79,10.91 -14.18,18.28 -4.9,15.15 3.72,28.3 13.56,38.29 4.64,4.71 16.61,6.82 22.72,4.21 6.2,-2.66 12.5,-12.33 13.14,-19.42 2.01,-22.54 -15.91,-43.58 -35.24,-41.36"
         style="fill:#261f1b;fill-opacity:1;fill-rule:nonzero;stroke:none"
         transform="matrix(0.13333333,0,0,-0.13333333,0,1496)" />
      <path
         id="path50"
         d="m 6756.41,5939.65 c -2.06,-27.53 -28.58,-47.33 -54.37,-39.66 -4.47,1.33 -9.65,7.03 -10.79,11.63 -4.09,16.47 6.12,27.62 17.85,36.34 11.64,8.65 25.3,14.81 39.57,6.14 4.03,-2.44 5.24,-9.5 7.74,-14.45"
         style="fill:#261f1b;fill-opacity:1;fill-rule:nonzero;stroke:none"
         transform="matrix(0.13333333,0,0,-0.13333333,0,1496)" />
      <path
         id="path51"
         d="m 5983.46,7374.11 c -7.78,-26.7 -46.38,-37.47 -64.64,-19.41 -3.38,3.34 -5.63,11.03 -4.26,15.43 6.68,21.45 35.47,33.75 56.21,23.08 6.3,-3.23 9.06,-13.35 12.69,-19.1"
         style="fill:#261f1b;fill-opacity:1;fill-rule:nonzero;stroke:none"
         transform="matrix(0.13333333,0,0,-0.13333333,0,1496)" />
      <path
         id="path52"
         d="m 6547.72,7341.99 c -5.88,-13.03 -11.9,-25.95 -29.35,-25.71 -13.45,0.18 -22.29,14.67 -18.58,31.24 3.63,16.16 13.29,24.2 30.34,19.88 12.96,-3.29 16.27,-13.81 17.59,-25.41"
         style="fill:#261f1b;fill-opacity:1;fill-rule:nonzero;stroke:none"
         transform="matrix(0.13333333,0,0,-0.13333333,0,1496)" />
      <path
         id="path53"
         d="m 7006.4,6123.84 c -10.02,0.18 -20.04,0.37 -30.07,0.56 -4.26,6.31 -8.52,12.63 -12.81,18.94 15.85,-0.34 31.71,-0.67 47.59,-1.01 -1.57,-6.16 -3.14,-12.33 -4.71,-18.49"
         style="fill:#261f1b;fill-opacity:1;fill-rule:nonzero;stroke:none"
         transform="matrix(0.13333333,0,0,-0.13333333,0,1496)" />
      <path
         id="path54"
         d="m 6165.92,6479.45 c 11.93,1.1 21.53,-3.06 28.73,-12.68 -12.56,-2.53 -21.81,2.43 -28.73,12.68"
         style="fill:#261f1b;fill-opacity:1;fill-rule:nonzero;stroke:none"
         transform="matrix(0.13333333,0,0,-0.13333333,0,1496)" />
    </g>
  </g>
</svg>
